<?xml version="1.0" encoding="UTF-8" standalone="no"?>
<svg width="480px" height="139px" viewBox="0 0 480 139" version="1.1" xmlns="http://www.w3.org/2000/svg" xmlns:xlink="http://www.w3.org/1999/xlink">
    <!-- Generator: Sketch 3.8.3 (29802) - http://www.bohemiancoding.com/sketch -->
    <title>title-svg</title>
    <desc>Created with Sketch.</desc>
    <defs></defs>
    <g id="Page-1" stroke="none" stroke-width="1" fill="none" fill-rule="evenodd">
        <g id="title-svg" transform="translate(1.000000, 0.000000)">
            <path d="M0.208,36.152 L0.208,61 L5.232,61 L5.232,49.56 L15.8,49.56 L15.8,45.656 L5.232,45.656 L5.232,40.376 L17.272,40.376 L17.272,36.152 L0.208,36.152 Z M41.3543782,30.152 L36.3303782,31.152 L36.3303782,51.36 C36.3303782,53.0666752 35.9890483,54.319996 35.3063782,55.12 C34.6237082,55.920004 33.3863872,56.32 31.5943782,56.32 C30.5703731,56.32 29.7543813,56.1760014 29.1463782,55.888 C28.5383752,55.5999986 28.0637133,55.226669 27.7223782,54.768 C27.3810432,54.309331 27.1570454,53.7813363 27.0503782,53.184 C26.943711,52.5866637 26.8903782,51.9786698 26.8903782,51.36 L26.8903782,33.152 L21.8663782,34.152 L21.8663782,51.36 C21.8663782,54.4746822 22.7143698,56.7786592 24.4103782,58.272 C26.1063867,59.7653408 28.5010294,60.512 31.5943782,60.512 C34.6450602,60.512 37.0343696,59.7600075 38.7623782,58.256 C40.4903869,56.7519925 41.3543782,54.4533488 41.3543782,51.36 L41.3543782,30.152 Z M50.5087565,39.376 L50.5087565,60 L55.5327565,60 L55.5327565,39.376 L62.3807565,40.376 L62.3807565,35.152 C62.3807565,35.152 58.0000004,35.152 52.0000004,34 C46.0000004,32.8480001 43.6607565,32.152 43.6607565,32.152 L43.6607565,38.376 L50.5087565,39.376 Z M85.1751347,35.152 L80.1511347,36.152 L80.1511347,51.36 C80.1511347,53.0666752 79.8098048,54.319996 79.1271347,55.12 C78.4444647,55.920004 77.2071437,56.32 75.4151347,56.32 C74.3911296,56.32 73.5751378,56.1760014 72.9671347,55.888 C72.3591317,55.5999986 71.8844698,55.226669 71.5431347,54.768 C71.2017997,54.309331 70.9778019,53.7813363 70.8711347,53.184 C70.7644675,52.5866637 70.7111347,51.9786698 70.7111347,51.36 L70.7111347,36.152 L65.6871347,36.152 L65.6871347,51.36 C65.6871347,54.4746822 66.5351263,56.7786592 68.2311347,58.272 C69.9271432,59.7653408 72.3217859,60.512 75.4151347,60.512 C78.4658167,60.512 80.8551261,59.7600075 82.5831347,58.256 C84.3111434,56.7519925 85.1751347,54.4533488 85.1751347,51.36 L85.1751347,35.152 Z M96.297513,49.488 L96.297513,43.056 L101.801513,43.056 C102.953519,43.056 103.81751,43.3066642 104.393513,43.808 C104.969516,44.3093358 105.257513,45.1146611 105.257513,46.224 C105.257513,47.3760058 104.969516,48.2079974 104.393513,48.72 C103.81751,49.2320026 102.953519,49.488 101.801513,49.488 L96.297513,49.488 Z M91.273513,37.152 L91.273513,64 L96.297513,64 L96.297513,55.072 L100.321513,55.072 C101.580186,55.072 102.486844,55.3493306 103.041513,55.904 C103.596182,56.4586694 103.958845,56.3333274 104.129513,57.528 C104.257514,58.4453379 104.353513,58.4053283 104.417513,59.408 C104.481513,60.4106717 104.652178,62.274663 104.929513,63 L110.953513,63 C110.718845,62.6799984 110.542847,61.290669 110.425513,60.832 C110.308179,60.373331 110.222847,59.8880026 110.169513,59.376 C110.116179,58.8639974 110.078846,58.3626691 110.057513,57.872 C110.03618,57.3813309 110.014846,56.9546685 109.993513,56.592 C109.950846,56.0159971 109.870847,55.4400029 109.753513,54.864 C109.636179,54.2879971 109.449514,53.7600024 109.193513,53.28 C108.937512,52.7999976 108.606848,52.3840018 108.201513,52.032 C107.796178,51.6799982 107.284183,51.4186675 106.665513,51.248 C107.945519,50.6719974 108.868177,49.9253382 109.433513,48.944 C109.998849,47.9626618 110.281513,44.8000067 110.281513,43.456 C110.281513,42.581329 110.126848,41.7653371 109.817513,41.008 C109.508178,40.2506629 109.060183,39.5840029 108.473513,39.008 C107.886843,38.4319971 107.18285,37.9786683 106.361513,37.648 C105.540176,37.3173317 104.617518,37.152 103.593513,37.152 L91.273513,37.152 Z M115.155891,36.152 L115.155891,61 L132.499891,61 L132.499891,55.776 L120.179891,55.776 L120.179891,49.176 L131.251891,49.176 L131.251891,45.272 L120.179891,45.272 L120.179891,40.376 L132.243891,40.376 L132.243891,36.152 L115.155891,36.152 Z M151.368648,46.904 L151.368648,40.056 L155.741879,40.056 C156.387113,40.056 157.00844,40.0986662 157.605879,40.184 C158.203317,40.2693338 158.729056,40.4346654 159.183109,40.68 C159.637163,40.9253346 160.001595,41.2719978 160.276417,41.72 C160.551239,42.1680022 160.688648,42.754663 160.688648,43.48 C160.688648,44.205337 160.551239,44.7919978 160.276417,45.24 C160.001595,45.6880022 159.637163,46.0346654 159.183109,46.28 C158.729056,46.5253346 158.203317,46.6906662 157.605879,46.776 C157.00844,46.8613338 156.387113,46.904 155.741879,46.904 L151.368648,46.904 Z M146.344648,36.152 L146.344648,60 L151.64457,60 L151.64457,50.808 L157.214553,50.808 C158.722394,50.808 160.005165,50.6000021 161.062904,50.184 C162.120644,49.7679979 162.981451,49.2186701 163.645351,48.536 C164.309251,47.8533299 164.793103,47.0693378 165.096922,46.184 C165.400741,45.2986622 165.552648,44.3973379 165.552648,43.48 C165.552648,42.5413286 165.400741,41.634671 165.096922,40.76 C164.793103,39.885329 164.309251,39.1066701 163.645351,38.424 C162.981451,37.7413299 162.120644,37.1920021 161.062904,36.776 C160.005165,36.3599979 158.722394,36.152 157.214553,36.152 L146.344648,36.152 Z M175.491026,42.488 L175.491026,36.056 L181.609312,36.056 C182.88989,36.056 183.850308,36.3066642 184.490597,36.808 C185.130886,37.3093358 185.451026,38.1146611 185.451026,39.224 C185.451026,40.3760058 185.130886,41.2079974 184.490597,41.72 C183.850308,42.2320026 182.88989,42.488 181.609312,42.488 L175.491026,42.488 Z M170.467026,31.152 L170.467026,59 L175.746311,59 L175.746311,47.072 L181.025595,47.072 C182.348225,47.072 183.300953,47.3493306 183.883806,47.904 C184.46666,48.4586694 184.847751,49.3333274 185.027091,50.528 C185.161596,51.4453379 185.262473,52.4053283 185.329725,53.408 C185.396978,54.4106717 185.576315,55.274663 185.867741,56 L191.147026,56 C190.900434,55.6799984 190.715493,55.290669 190.592197,54.832 C190.468901,54.373331 190.379232,53.8880026 190.323189,53.376 C190.267145,52.8639974 190.227915,52.3626691 190.205498,51.872 C190.18308,51.3813309 190.160663,50.9546685 190.138245,50.592 C190.093411,50.0159971 190.009346,49.4400029 189.88605,48.864 C189.762754,48.2879971 189.566605,47.7600024 189.297595,47.28 C189.028586,46.7999976 188.68112,46.3840018 188.255189,46.032 C187.829257,45.6799982 187.291246,45.4186675 186.64114,45.248 C187.986187,44.6719974 188.955728,41.9253382 189.54979,40.944 C190.143853,39.9626618 190.44088,38.8000067 190.44088,37.456 C190.44088,36.581329 190.278356,35.7653371 189.953302,35.008 C189.628249,34.2506629 189.15749,33.5840029 188.54101,33.008 C187.92453,32.4319971 187.184765,31.9786683 186.321693,31.648 C185.458621,31.3173317 184.48908,31.152 183.413042,31.152 L170.467026,31.152 Z M197.381404,48.1781983 C197.381404,47.1107881 197.493403,46.0774595 197.717404,45.0781818 C197.941405,44.0789041 198.298735,43.1875163 198.789404,42.4039917 C199.280073,41.6204672 199.920067,40.9959279 200.709404,40.5303554 C201.498742,40.0647828 202.458732,39.832 203.589404,39.832 C204.720077,39.832 205.680067,40.0647828 206.469404,40.5303554 C207.258742,40.9959279 207.898735,41.6204672 208.389404,42.4039917 C208.880073,43.1875163 209.237403,44.0789041 209.461404,45.0781818 C209.685405,46.0774595 209.797404,47.1107881 209.797404,48.1781983 C209.797404,49.2001869 209.685405,50.193772 209.461404,51.1589835 C209.237403,52.1241949 208.880073,52.9928722 208.389404,53.7650413 C207.898735,54.5372105 207.258742,55.1560721 206.469404,55.6216446 C205.680067,56.0872172 204.720077,56.32 203.589404,56.32 C202.458732,56.32 201.498742,56.0872172 200.709404,55.6216446 C199.920067,55.1560721 199.280073,54.5372105 198.789404,53.7650413 C198.298735,52.9928722 197.941405,52.1241949 197.717404,51.1589835 C197.493403,50.193772 197.381404,49.2001869 197.381404,48.1781983 L197.381404,48.1781983 Z M192.357404,48.1766854 C192.357404,49.9103059 192.613402,51.5272161 193.125404,53.0274645 C193.637407,54.527713 194.373399,55.8334652 195.333404,56.9447604 C196.293409,58.0560555 197.472064,58.9284091 198.869404,59.5618474 C200.266745,60.1952856 201.840062,60.512 203.589404,60.512 C205.36008,60.512 206.938731,60.1952856 208.325404,59.5618474 C209.712078,58.9284091 210.885399,58.0560555 211.845404,56.9447604 C212.805409,55.8334652 213.541402,54.527713 214.053404,53.0274645 C214.565407,51.5272161 214.821404,49.9103059 214.821404,48.1766854 C214.821404,46.3986132 214.565407,44.7483646 214.053404,43.2258902 C213.541402,41.7034159 212.805409,40.3754381 211.845404,39.241917 C210.885399,38.1083959 209.712078,37.2193731 208.325404,36.574822 C206.938731,35.9302708 205.36008,35.608 203.589404,35.608 C201.840062,35.608 200.266745,35.9302708 198.869404,36.574822 C197.472064,37.2193731 196.293409,38.1083959 195.333404,39.241917 C194.373399,40.3754381 193.637407,41.7034159 193.125404,43.2258902 C192.613402,44.7483646 192.357404,46.3986132 192.357404,48.1766854 L192.357404,48.1766854 Z M225.047782,48.4 L225.047782,42.056 C225.047782,42.056 230.63178,43.093333 231.047782,43.168 C231.463785,43.242667 231.831781,43.375999 232.151782,43.568 C232.471784,43.760001 232.727782,44.026665 232.919782,44.368 C233.111783,44.709335 233.207782,45.146664 233.207782,45.68 C233.207782,46.6400048 232.919785,47.3333312 232.343782,47.76 C231.76778,48.1866688 231.031787,48.4 230.135782,48.4 L225.047782,48.4 Z M220.023782,37.152 L220.023782,62 L231.095782,62 C232.119788,62 233.117111,61.8720013 234.087782,61.616 C235.058454,61.3599987 235.922445,60.965336 236.679782,60.432 C237.43712,59.898664 238.03978,59.2106709 238.487782,58.368 C238.935785,57.5253291 239.159782,56.5280058 239.159782,55.376 C239.159782,53.9466595 238.813119,52.7253384 238.119782,51.712 C237.426446,50.6986616 236.37579,49.9893354 234.967782,49.584 C235.991788,49.0933309 236.765113,48.4640038 237.287782,47.696 C237.810452,46.9279962 238.071782,45.9680058 238.071782,44.816 C238.071782,43.749328 237.895784,42.853337 237.543782,42.128 C237.191781,41.402663 236.695786,40.8213355 236.055782,40.384 C235.415779,39.9466645 234.647787,39.632001 233.751782,39.44 C232.855778,39.247999 220.023782,37.152 220.023782,37.152 Z M225.047782,58.096 L225.047782,51.824 L230.519782,51.824 C231.607788,51.824 232.482446,52.0746642 233.143782,52.576 C233.805119,53.0773358 234.135782,53.9146608 234.135782,55.088 C234.135782,55.6853363 234.03445,56.1759981 233.831782,56.56 C233.629115,56.9440019 233.357118,57.2479989 233.015782,57.472 C232.674447,57.6960011 232.279785,57.8559995 231.831782,57.952 C231.38378,58.0480005 230.914452,58.096 230.423782,58.096 L225.047782,58.096 Z M244.330161,36.152 L244.330161,61 L261.490161,61 L261.490161,55.776 L249.354161,55.776 L249.354161,36.152 L244.330161,36.152 Z M275,35.152 C271.722429,35.3332014 265.084539,35.152 265.084539,35.152 L265.084539,60 L282.428539,60 L282.428539,54.776 L270.108539,54.776 L270.108539,49.176 L281.180539,49.176 L281.180539,44.272 L270.108539,44.272 L270.108539,40.376 C270.108539,40.376 274.048318,40.5253939 276,40.376 C278.402984,40.1920605 283.172539,39.376 283.172539,39.376 L283.172539,34.152 C283.172539,34.152 277.751763,34.999868 275,35.152 Z M287.598917,33.152 L287,59.9999996 L293,59.9999996 L293.302917,41.968 L296.966917,60 L300.838917,60 L306.438917,42.808 L306.502917,60 L311.206917,60 L311.206917,36.152 L304.134917,36.152 L299.078917,51.864 L294.670917,33.152 L287.598917,33.152 Z M313.961295,52.416 C313.939962,53.824007 314.195959,55.0399949 314.729295,56.064 C315.262631,57.0880051 315.982624,57.9306634 316.889295,58.592 C317.795967,59.2533366 318.84129,59.7386651 320.025295,60.048 C321.209301,60.3573349 322.430623,60.512 323.689295,60.512 C325.246637,60.512 326.61729,60.3306685 327.801295,59.968 C328.985301,59.6053315 329.977291,59.0986699 330.777295,58.448 C331.577299,57.7973301 332.17996,57.0240045 332.585295,56.128 C332.990631,55.2319955 333.193295,54.2613386 333.193295,53.216 C333.193295,51.9359936 332.921298,50.8853374 332.377295,50.064 C331.833293,49.2426626 331.187966,48.5866691 330.441295,48.096 C329.694625,47.6053309 328.942633,47.2480011 328.185295,47.024 C327.427958,46.7999989 326.835964,46.6453338 326.409295,46.56 C324.979955,46.1973315 323.822633,45.8986678 322.937295,45.664 C322.051958,45.4293322 321.358631,45.1946678 320.857295,44.96 C320.35596,44.7253322 320.019963,44.4693347 319.849295,44.192 C319.678628,43.9146653 319.593295,43.5520022 319.593295,43.104 C319.593295,42.6133309 319.699961,42.2080016 319.913295,41.888 C320.12663,41.5679984 320.398627,41.3013344 320.729295,41.088 C321.059964,40.8746656 321.42796,40.7253338 321.833295,40.64 C322.238631,40.5546662 322.64396,40.512 323.049295,40.512 C323.667965,40.512 324.238626,40.5653328 324.761295,40.672 C325.283965,40.7786672 325.74796,40.9599987 326.153295,41.216 C326.558631,41.4720013 326.883961,41.8239978 327.129295,42.272 C327.37463,42.7200022 327.518629,43.2853299 327.561295,43.968 L332.425295,43.968 C332.425295,42.6453267 332.174631,41.5200046 331.673295,40.592 C331.17196,39.6639954 330.494633,38.9013363 329.641295,38.304 C328.787958,37.7066637 327.811968,37.274668 326.713295,37.008 C325.614623,36.741332 324.467968,36.608 323.273295,36.608 C322.24929,36.608 321.225301,36.7466653 320.201295,37.024 C319.17729,37.3013347 318.259966,37.7279971 317.449295,38.304 C316.638625,38.8800029 315.982631,39.5999957 315.481295,40.464 C314.97996,41.3280043 314.729295,42.3466608 314.729295,43.52 C314.729295,44.5653386 314.926627,45.4559963 315.321295,46.192 C315.715964,46.9280037 316.233292,47.5413309 316.873295,48.032 C317.513299,48.5226691 318.238625,48.9226651 319.049295,49.232 C319.859966,49.5413349 320.691958,49.8026656 321.545295,50.016 C322.3773,50.2506678 323.198625,50.463999 324.009295,50.656 C324.819966,50.848001 325.545292,51.0719987 326.185295,51.328 C326.825299,51.5840013 327.342627,51.9039981 327.737295,52.288 C328.131964,52.6720019 328.329295,53.1733302 328.329295,53.792 C328.329295,54.3680029 328.179964,54.8426648 327.881295,55.216 C327.582627,55.5893352 327.209298,55.8826656 326.761295,56.096 C326.313293,56.3093344 325.833298,56.453333 325.321295,56.528 C324.809293,56.602667 324.329298,56.64 323.881295,56.64 C323.219959,56.64 322.579965,56.5600008 321.961295,56.4 C321.342626,56.2399992 320.803964,55.9946683 320.345295,55.664 C319.886627,55.3333317 319.51863,54.901336 319.241295,54.368 C318.963961,53.834664 318.825295,53.1840038 318.825295,52.416 L313.961295,52.416 Z" id="FUTURE-PROBLEMS" stroke="#AAAAAA"></path>
            <path d="M0.208,97.152 L0.208,120 L5.232,120 L5.232,110.56 L14.8,110.56 L14.8,106.656 L5.232,106.656 L5.232,101.376 L16.272,101.376 L16.272,97.152 L0.208,97.152 Z M25.3303782,106.76 C25.5543794,105.821329 25.9117091,104.984004 26.4023782,104.248 C26.8930474,103.511996 27.533041,102.925336 28.3223782,102.488 C29.1117155,102.050664 30.0717059,101.832 31.2023782,101.832 C32.3330506,101.832 33.293041,102.050664 34.0823782,102.488 C34.8717155,102.925336 35.5117091,103.511996 36.0023782,104.248 C36.4930474,104.984004 36.8503771,105.821329 37.0743782,106.76 C37.2983794,107.698671 37.4103782,108.669328 37.4103782,109.672 C37.4103782,110.632005 37.2983794,111.565329 37.0743782,112.472 C36.8503771,113.378671 36.4930474,114.194663 36.0023782,114.92 C35.5117091,115.645337 34.8717155,116.226664 34.0823782,116.664 C33.293041,117.101336 32.3330506,117.32 31.2023782,117.32 C30.0717059,117.32 29.1117155,117.101336 28.3223782,116.664 C27.533041,116.226664 26.8930474,115.645337 26.4023782,114.92 C25.9117091,114.194663 25.5543794,113.378671 25.3303782,112.472 C25.1063771,111.565329 24.9943782,110.632005 24.9943782,109.672 C24.9943782,108.669328 25.1063771,107.698671 25.3303782,106.76 Z M19.9703782,109.672 C19.9703782,111.336008 20.2263757,112.887993 20.7383782,114.328 C21.2503808,115.768007 21.9863734,117.021328 22.9463782,118.088 C23.906383,119.154672 25.0850379,119.991997 26.4823782,120.6 C27.8797186,121.208003 29.4530362,121.512 31.2023782,121.512 C32.9730538,121.512 34.5517046,121.208003 35.9383782,120.6 C37.3250518,119.991997 38.4983734,119.154672 39.4583782,118.088 C40.418383,117.021328 41.1543757,115.768007 41.6663782,114.328 C42.1783808,112.887993 42.4343782,111.336008 42.4343782,109.672 C42.4343782,107.965325 42.1783808,106.381341 41.6663782,104.92 C41.1543757,103.458659 40.418383,102.184005 39.4583782,101.096 C38.4983734,100.007995 37.3250518,99.1546698 35.9383782,98.536 C34.5517046,97.9173302 32.9730538,97.608 31.2023782,97.608 C29.4530362,97.608 27.8797186,97.9173302 26.4823782,98.536 C25.0850379,99.1546698 23.906383,100.007995 22.9463782,101.096 C21.9863734,102.184005 21.2503808,103.458659 20.7383782,104.92 C20.2263757,106.381341 19.9703782,107.965325 19.9703782,109.672 L19.9703782,109.672 Z M52.6607565,107.488 L52.6607565,101.056 L58.1647565,101.056 C59.3167623,101.056 60.1807536,101.306664 60.7567565,101.808 C61.3327594,102.309336 61.6207565,103.114661 61.6207565,104.224 C61.6207565,105.376006 61.3327594,106.207997 60.7567565,106.72 C60.1807536,107.232003 59.3167623,107.488 58.1647565,107.488 L52.6607565,107.488 Z M47.6367565,97.152 L48.6367565,123 L53.6607565,123 L53.6607565,114.072 L58.6847565,114.072 C59.9434295,114.072 60.8500871,114.349331 61.4047565,114.904 C61.9594259,115.458669 62.322089,116.333327 62.4927565,117.528 C62.6207571,118.445338 62.7226649,122.274663 62.9999996,123 L68.3167565,123 C67.9999996,120 66.8127578,114.760002 66.5567565,114.28 C66.3007552,113.799998 65.9700919,113.384002 65.5647565,113.032 C65.1594211,112.679998 64.6474263,112.418668 64.0287565,112.248 C65.3087629,111.671997 66.2314203,108.925338 66.7967565,107.944 C67.3620927,106.962662 67.6447565,104.800007 67.6447565,103.456 C67.6447565,102.581329 67.4900914,101.765337 67.1807565,101.008 C66.8714216,100.250663 66.4234261,99.5840029 65.8367565,99.008 C65.2500869,98.4319971 64.5460939,97.9786683 63.7247565,97.648 C62.9034191,97.3173317 61.9807616,97.152 60.9567565,97.152 L47.6367565,97.152 Z M80.193513,98.152 L80.193513,122 C80.193513,122 86.0149491,124.206377 89.0000001,125 C92.2837778,125.873044 98.9999991,127 98.9999991,127 L98.9999991,121 C98.9999991,121 93.9965794,120.427838 92.0000001,120 C89.329913,119.427838 86.0000001,118 86.0000001,118 L85.217513,98.152 L80.193513,98.152 Z M108.707891,111.168 L111.683891,102.784 L111.747891,102.784 L114.627891,111.168 L108.707891,111.168 Z M109.187891,97.152 L100.547891,120 L105.603891,120 L107.395891,114.912 L115.939891,114.912 L117.667891,120 L122.883891,120 L114.339891,97.152 L109.187891,97.152 Z M128.758269,101.376 L128.758269,120 L133.782269,120 L133.782269,100.376 L141.000001,99 L141.000001,93 C141.000001,93 135.177479,95.3089009 132,96 C128.814236,96.6929009 121.910269,97.152 121.910269,97.152 L121.910269,103 L128.758269,101.376 Z M153.204648,95.152 C149.908558,94.7875495 144.032648,93.152 144.032648,93.152 L144.032648,121 L162.376648,121 L162.376648,116.221378 L150.056648,116.221378 L150.056648,109.886084 L161.128648,109.886084 L161.128648,105.469479 L150.056648,105.469479 L150.056648,99.9306218 L162.120648,99.9306218 L162.120648,95.152 C162.120648,95.152 155.937891,95.4542162 153.204648,95.152 Z M172.571026,107.488 L172.571026,101.056 L178.075026,101.056 C179.227032,101.056 180.091023,101.306664 180.667026,101.808 C181.243029,102.309336 181.531026,103.114661 181.531026,104.224 C181.531026,105.376006 181.243029,106.207997 180.667026,106.72 C180.091023,107.232003 179.227032,107.488 178.075026,107.488 L172.571026,107.488 Z M167.547026,97.152 L167.547026,121 L172.571026,121 L172.571026,111.072 L177.595026,111.072 C178.853699,111.072 179.760357,111.349331 180.315026,111.904 C180.869695,112.458669 181.232358,113.333327 181.403026,114.528 C181.531027,115.445338 181.627026,116.405328 181.691026,117.408 C181.755026,118.410672 181.925691,120.274663 182.203026,121 L187.227026,121 C186.992358,120.679998 186.81636,119.290669 186.699026,118.832 C186.581692,118.373331 186.49636,117.888003 186.443026,117.376 C186.389692,116.863997 186.352359,116.362669 186.331026,115.872 C186.309693,115.381331 186.288359,114.954668 186.267026,114.592 C186.224359,114.015997 186.14436,113.440003 186.027026,112.864 C185.909692,112.287997 185.723027,111.760002 185.467026,111.28 C185.211025,110.799998 184.880361,110.384002 184.475026,110.032 C184.069691,109.679998 183.557696,109.418668 182.939026,109.248 C184.219032,108.671997 185.14169,107.925338 185.707026,106.944 C186.272362,105.962662 186.555026,104.800007 186.555026,103.456 C186.555026,102.581329 186.400361,101.765337 186.091026,101.008 C185.781691,100.250663 185.333696,99.5840029 184.747026,99.008 C184.160356,98.4319971 183.456363,97.9786683 182.635026,97.648 C181.813689,97.3173317 180.891031,97.152 179.867026,97.152 L167.547026,97.152 Z M217.010161,105.520086 L221.874161,105.520086 C221.724827,104.086747 221.362164,102.815256 220.786161,101.705574 C220.210158,100.595893 219.479498,99.6653924 218.594161,98.9140455 C217.708823,98.1626986 216.706166,97.5905276 215.586161,97.1975154 C214.466155,96.8045032 213.276834,96.608 212.018161,96.608 C210.268819,96.608 208.695501,96.9432113 207.298161,97.6136439 C205.90082,98.2840765 204.722166,99.2087973 203.762161,100.387834 C202.802156,101.566871 202.066163,102.948172 201.554161,104.53178 C201.042158,106.115389 200.786161,107.831902 200.786161,109.681371 C200.786161,111.484603 201.042158,113.166439 201.554161,114.726929 C202.066163,116.287419 202.802156,117.645602 203.762161,118.801521 C204.722166,119.957439 205.90082,120.864821 207.298161,121.523695 C208.695501,122.182568 210.268819,122.512 212.018161,122.512 C213.426168,122.512 214.716822,122.28082 215.890161,121.818452 C217.0635,121.356085 218.08749,120.685663 218.962161,119.807165 C219.836832,118.928667 220.540825,117.865238 221.074161,116.616846 C221.607497,115.368454 221.93816,113.969814 222.066161,112.420884 L217.202161,112.420884 C217.01016,114.085406 216.482165,115.426251 215.618161,116.443459 C214.754156,117.460667 213.554168,117.969264 212.018161,117.969264 C210.887488,117.969264 209.927498,117.732304 209.138161,117.258378 C208.348823,116.784451 207.70883,116.154485 207.218161,115.368461 C206.727492,114.582436 206.370162,113.698172 206.146161,112.715641 C205.92216,111.733111 205.810161,110.721697 205.810161,109.681371 C205.810161,108.594808 205.92216,107.542938 206.146161,106.52573 C206.370162,105.508521 206.727492,104.601139 207.218161,103.803556 C207.70883,103.005972 208.348823,102.370226 209.138161,101.8963 C209.927498,101.422373 210.887488,101.185414 212.018161,101.185414 C212.63683,101.185414 213.228825,101.295224 213.794161,101.514849 C214.359497,101.734473 214.866158,102.040787 215.314161,102.433799 C215.762163,102.826811 216.135493,103.283392 216.434161,103.803556 C216.732829,104.323719 216.924827,104.89589 217.010161,105.520086 L217.010161,105.520086 Z M230.300539,109.684397 C230.300539,108.552248 230.403517,107.456248 230.609477,106.396364 C230.815437,105.33648 231.143987,104.391029 231.595137,103.559983 C232.046287,102.728938 232.634735,102.06652 233.360498,101.572711 C234.086261,101.078901 234.968932,100.832 236.008539,100.832 C237.048146,100.832 237.930817,101.078901 238.65658,101.572711 C239.382343,102.06652 239.970791,102.728938 240.421941,103.559983 C240.873091,104.391029 241.201641,105.33648 241.407601,106.396364 C241.613561,107.456248 241.716539,108.552248 241.716539,109.684397 C241.716539,110.768369 241.613561,111.822215 241.407601,112.845967 C241.201641,113.869719 240.873091,114.791081 240.421941,115.610083 C239.970791,116.429084 239.382343,117.08548 238.65658,117.579289 C237.930817,118.073099 237.048146,118.32 236.008539,118.32 C234.968932,118.32 234.086261,118.073099 233.360498,117.579289 C232.634735,117.08548 232.046287,116.429084 231.595137,115.610083 C231.143987,114.791081 230.815437,113.869719 230.609477,112.845967 C230.403517,111.822215 230.300539,110.768369 230.300539,109.684397 L230.300539,109.684397 Z M225.276539,109.681371 C225.276539,111.484603 225.521141,113.166439 226.010351,114.726929 C226.499561,116.287419 227.202791,117.645602 228.12006,118.801521 C229.03733,119.957439 230.163516,120.864821 231.498653,121.523695 C232.83379,122.182568 234.33707,122.512 236.008539,122.512 C237.700392,122.512 239.208768,122.182568 240.533713,121.523695 C241.858658,120.864821 242.979748,119.957439 243.897018,118.801521 C244.814287,117.645602 245.517517,116.287419 246.006727,114.726929 C246.495937,113.166439 246.740539,111.484603 246.740539,109.681371 C246.740539,107.831902 246.495937,106.115389 246.006727,104.53178 C245.517517,102.948172 244.814287,101.566871 243.897018,100.387834 C242.979748,99.2087973 241.858658,98.2840765 240.533713,97.6136439 C239.208768,96.9432113 237.700392,96.608 236.008539,96.608 C234.33707,96.608 232.83379,96.9432113 231.498653,97.6136439 C230.163516,98.2840765 229.03733,99.2087973 228.12006,100.387834 C227.202791,101.566871 226.499561,102.948172 226.010351,104.53178 C225.521141,106.115389 225.276539,107.831902 225.276539,109.681371 L225.276539,109.681371 Z M250.942917,96.152 L250.942917,121 L255.890698,121 L255.890698,104.365064 L255.958015,104.365064 L265.954552,121 L271.238917,121 L271.238917,96.152 L266.291136,96.152 L266.291136,112.821737 L266.223819,112.821737 L256.193624,96.152 L250.942917,96.152 Z M279.363215,112.399936 L273.993423,112.399936 C273.969872,113.98465 274.252489,115.353247 274.841285,116.505767 C275.430081,117.658287 276.224944,118.6067 277.225896,119.351036 C278.226849,120.095372 279.380872,120.64161 280.687999,120.989767 C281.995126,121.337924 283.343448,121.512 284.733006,121.512 C286.45229,121.512 287.965472,121.307911 289.272599,120.899727 C290.579726,120.491543 291.67487,119.921294 292.558064,119.188964 C293.441257,118.456634 294.106587,117.586254 294.554072,116.577799 C295.001556,115.569344 295.225295,114.476868 295.225295,113.300337 C295.225295,111.859688 294.925014,110.677172 294.324442,109.752755 C293.723871,108.828338 293.011438,108.090016 292.187124,107.537767 C291.36281,106.985518 290.53262,106.583343 289.69653,106.331229 C288.86044,106.079115 288.206886,105.905039 287.73585,105.808996 C286.157877,105.400812 284.880209,105.064665 283.902808,104.800546 C282.925407,104.536427 282.159984,104.272312 281.606516,104.008193 C281.053048,103.744074 280.682112,103.455948 280.493697,103.143807 C280.305282,102.831666 280.211076,102.423488 280.211076,101.919261 C280.211076,101.367012 280.328834,100.910813 280.564352,100.550651 C280.799871,100.190488 281.100152,99.8903573 281.465205,99.650249 C281.830259,99.4101407 282.236522,99.2420674 282.684007,99.1460241 C283.131492,99.0499808 283.57897,99.0019598 284.026454,99.0019598 C284.709458,99.0019598 285.33946,99.061986 285.91648,99.1820402 C286.4935,99.3020943 287.005744,99.5061833 287.453229,99.7943133 C287.900714,100.082443 288.259874,100.478616 288.53072,100.982843 C288.801566,101.487071 288.960539,102.123348 289.007642,102.891695 L294.377434,102.891695 C294.377434,101.403023 294.100704,100.136471 293.547236,99.092 C292.993768,98.0475289 292.246008,97.1891546 291.303935,96.5168514 C290.361861,95.8445482 289.284381,95.3583362 288.071462,95.0582008 C286.858542,94.7580654 285.59265,94.608 284.273748,94.608 C283.143259,94.608 282.012788,94.7640681 280.8823,95.0762088 C279.751812,95.3883496 278.739099,95.868559 277.844129,96.5168514 C276.949159,97.1651438 276.224951,97.9754971 275.671483,98.9479357 C275.118015,99.9203743 274.841285,101.066874 274.841285,102.38747 C274.841285,103.564001 275.059136,104.566438 275.494845,105.394811 C275.930554,106.223185 276.501678,106.913486 277.208233,107.465735 C277.914788,108.017984 278.715538,108.46818 279.610508,108.816337 C280.505477,109.164494 281.423985,109.458623 282.366059,109.698731 C283.28458,109.96285 284.191312,110.202955 285.086282,110.419052 C285.981251,110.63515 286.782002,110.88726 287.488557,111.17539 C288.195112,111.46352 288.766235,111.823677 289.201944,112.255871 C289.637653,112.688066 289.855504,113.252312 289.855504,113.948627 C289.855504,114.596919 289.690644,115.131152 289.360918,115.551341 C289.031193,115.971531 288.619042,116.301675 288.124453,116.541783 C287.629865,116.781891 287.099956,116.943962 286.534712,117.028 C285.969468,117.112038 285.43956,117.154056 284.944971,117.154056 C284.214865,117.154056 283.50832,117.064017 282.825317,116.883936 C282.142314,116.703855 281.547639,116.427734 281.041274,116.055566 C280.53491,115.683398 280.128647,115.197186 279.822473,114.596916 C279.516299,113.996645 279.363215,113.264326 279.363215,112.399936 L279.363215,112.399936 Z M297.979674,96.152 L297.979674,121 L303.003674,121 L303.003674,96.152 L297.979674,96.152 Z M313.222052,116.776 L313.222052,100.376 L316.806052,100.376 C318.043391,100.376 319.083381,100.576442 319.926052,100.977333 C320.768723,101.378224 321.446049,101.955255 321.958052,102.708444 C322.470055,103.461633 322.838051,104.366661 323.062052,105.423556 C323.286053,106.48045 323.398052,107.664882 323.398052,108.976889 C323.398052,110.410378 323.238054,111.62518 322.918052,112.621333 C322.59805,113.617486 322.171388,114.42533 321.638052,115.044889 C321.104716,115.664448 320.496722,116.107851 319.814052,116.375111 C319.131382,116.642372 318.427389,116.776 317.702052,116.776 L313.222052,116.776 Z M308.198052,96.152 L308.198052,121 L318.054052,121 C319.803394,121 321.323379,120.680993 322.614052,120.042969 C323.904725,119.404945 324.982048,118.529126 325.846052,117.415485 C326.710056,116.301843 327.355383,114.979414 327.782052,113.448157 C328.208721,111.9169 328.422052,110.246463 328.422052,108.436796 C328.422052,106.371919 328.160721,104.573879 327.638052,103.042622 C327.115383,101.511365 326.390057,100.235337 325.462052,99.2144986 C324.534047,98.1936606 323.435392,97.4280436 322.166052,96.9176246 C320.896712,96.4072057 319.526059,96.152 318.054052,96.152 L308.198052,96.152 Z M332.68843,96.152 L332.68843,121 L351.03243,121 L351.03243,116.406252 L338.002098,116.406252 L338.002098,110.316056 L349.712475,110.316056 L349.712475,106.070319 L338.002098,106.070319 L338.002098,100.745748 L350.76167,100.745748 L350.76167,96.152 L332.68843,96.152 Z M360.226808,107.488 L360.226808,100.056 L366.345094,100.056 C367.625672,100.056 368.586091,100.345636 369.22638,100.924915 C369.866669,101.504195 370.186808,102.434727 370.186808,103.716537 C370.186808,105.047648 369.866669,106.008992 369.22638,106.600597 C368.586091,107.192202 367.625672,107.488 366.345094,107.488 L360.226808,107.488 Z M355.202808,96.152 L355.202808,120 L360.482093,120 L360.482093,110.681244 L365.761378,110.681244 C367.084007,110.681244 368.036735,110.970712 368.619589,111.549658 C369.202443,112.128604 369.583534,115.041544 369.762874,116.288504 C369.897378,117.245992 369.998255,118.247999 370.065508,119.294555 C370.13276,120.341111 370.312097,121.242917 370.603524,122 L375.882808,122 C375.636216,121.665993 375.451275,121.259623 375.327979,120.78088 C375.204683,120.302136 375.115015,119.795566 375.058971,119.261154 C375.002927,118.726742 374.963697,118.203472 374.94128,117.691328 C374.918863,117.179183 374.896445,116.733847 374.874028,116.355305 C374.829193,115.754092 374.745129,113.152888 374.621833,112.551675 C374.498537,111.950462 374.302387,111.399358 374.033378,110.898347 C373.764368,110.397336 373.416903,109.963133 372.990971,109.595725 C372.565039,109.228317 372.027029,108.955549 371.376922,108.777412 C372.72197,108.176199 373.69151,107.39686 374.285573,106.372571 C374.879635,105.348282 375.176662,104.134741 375.176662,102.73191 C375.176662,101.818957 375.014138,100.967251 374.689085,100.176768 C374.364032,99.3862836 373.893272,98.6904456 373.276792,98.0892325 C372.660312,97.4880194 371.920547,97.0148495 371.057475,96.6697087 C370.194403,96.3245678 369.224863,96.152 368.148825,96.152 L355.202808,96.152 Z M385.845187,113.168 L389.318484,99.784 L389.371673,99.784 L391.765187,112.168 L385.845187,113.168 Z M386.938367,95.152 L377.685187,125 L382.514826,125 L385.226596,116.021244 L393.388075,116.021244 L395.038711,122 L400.021187,122 L391.859708,95.152 L386.938367,95.152 Z M406.895565,100.745748 L406.895565,121 L411.919565,121 L411.919565,100.745748 L418.767565,100.745748 L418.767565,96.152 L400.047565,96.152 L400.047565,100.745748 L406.895565,100.745748 Z M422.169943,96.152 L422.169943,121 L427.193943,121 L427.193943,96.152 L422.169943,96.152 Z M436.420321,108.684397 C436.420321,107.552248 436.53232,106.456248 436.756321,105.396364 C436.980323,104.33648 437.337652,103.391029 437.828321,102.559983 C438.318991,101.728938 438.958984,101.06652 439.748321,100.572711 C440.537659,100.078901 441.497649,99.832 442.628321,99.832 C443.758994,99.832 444.718984,100.078901 445.508321,100.572711 C446.297659,101.06652 446.937652,101.728938 447.428321,102.559983 C447.918991,103.391029 448.27632,104.33648 448.500321,105.396364 C448.724323,106.456248 448.836321,107.552248 448.836321,108.684397 C448.836321,109.768369 448.724323,110.822215 448.500321,111.845967 C448.27632,112.869719 447.918991,113.791081 447.428321,114.610083 C446.937652,115.429084 446.297659,116.08548 445.508321,116.579289 C444.718984,117.073099 443.758994,117.32 442.628321,117.32 C441.497649,117.32 440.537659,117.073099 439.748321,116.579289 C438.958984,116.08548 438.318991,115.429084 437.828321,114.610083 C437.337652,113.791081 436.980323,112.869719 436.756321,111.845967 C436.53232,110.822215 436.420321,109.768369 436.420321,108.684397 L436.420321,108.684397 Z M431.396321,108.681371 C431.396321,110.484603 431.652319,112.166439 432.164321,113.726929 C432.676324,115.287419 433.412317,116.645602 434.372321,117.801521 C435.332326,118.957439 436.510981,119.864821 437.908321,120.523695 C439.305662,121.182568 440.878979,121.512 442.628321,121.512 C444.398997,121.512 445.977648,121.182568 447.364321,120.523695 C448.750995,119.864821 449.924317,118.957439 450.884321,117.801521 C451.844326,116.645602 452.580319,115.287419 453.092321,113.726929 C453.604324,112.166439 453.860321,110.484603 453.860321,108.681371 C453.860321,106.831902 453.604324,105.115389 453.092321,103.53178 C452.580319,101.948172 451.844326,100.566871 450.884321,99.387834 C449.924317,98.2087973 448.750995,97.2840765 447.364321,96.6136439 C445.977648,95.9432113 444.398997,95.608 442.628321,95.608 C440.878979,95.608 439.305662,95.9432113 437.908321,96.6136439 C436.510981,97.2840765 435.332326,98.2087973 434.372321,99.387834 C433.412317,100.566871 432.676324,101.948172 432.164321,103.53178 C431.652319,105.115389 431.396321,106.831902 431.396321,108.681371 L431.396321,108.681371 Z M457.0627,95.152 L457.0627,121 L462.254262,121 L462.254262,103.695597 L462.324895,103.695597 L472.81397,121 L478.3587,121 L478.3587,95.152 L473.167138,95.152 L473.167138,112.492605 L473.096504,112.492605 L462.572113,95.152 L457.0627,95.152 Z" id="FOR-LATER--CONSIDERA" stroke="#AAAAAA"></path>
            <path d="M27.9999998,7.99999999 C25.813013,7.99999999 21.208,7.152 21.208,7.152 L21.208,34.9999996 L26.2320002,35 L26.2320002,26 C26.2320002,26 28.9999998,25.9999996 31.9999998,24.9999996 C34.9999998,23.9999996 37.2719992,21.9999996 37.2719992,21.9999996 L37.2719992,15.9999996 C37.2719992,15.9999996 33.9999998,17.9999996 30.9999998,18.9999996 C27.9999998,19.9999996 26.2320002,18.9999996 26.2320002,18.9999996 L26.2320002,13 C26.2320002,13 27.9999998,14 31.9999998,13 C35.9999998,12 37.9999998,11 37.9999998,11 L37.9999998,6 C37.9999998,6 31.1676797,7.99999999 27.9999998,7.99999999 Z M61.3543782,0.152 L56.3303782,1.152 L56.3303782,18.36 C56.3303782,20.0666752 55.9890483,21.319996 55.3063782,22.12 C54.6237082,22.920004 53.3863872,23.32 51.5943782,23.32 C50.5703731,23.32 49.7543813,23.1760014 49.1463782,22.888 C48.5383752,22.5999986 48.0637133,22.226669 47.7223782,21.768 C47.3810432,21.309331 47.1570454,20.7813363 47.0503782,20.184 C46.943711,19.5866637 46.8903782,18.9786698 46.8903782,18.36 L46.8903782,3.152 L41.8663782,4.152 L41.8663782,18.36 C41.8663782,21.4746822 41.8663782,25.9999996 43.9999999,27.5120006 C46.1336216,29.0240016 47.9999999,28.9999996 51.5943779,28.9999996 C55.1887559,28.9999996 57.2719908,27.5040071 58.9999995,25.9999996 C60.7280081,24.4959921 61.3543782,21.4533488 61.3543782,18.36 L61.3543782,0.152 Z M71.5087565,4.376 L71.5087565,25 L76.5327565,25 L76.5327565,4.376 L83.3807565,4.376 L83.3807565,0.152 L64.6607565,0.152 L64.6607565,4.376 L71.5087565,4.376 Z M106.175135,6.152 L101.151135,5.152 L101.151134,16.9999996 C101.151134,18.7066748 101,21.6479984 100,22.7679992 C99,23.8880001 98.2071437,24.32 96.4151347,24.32 C95.3911296,24.32 94.5751378,24.1760014 93.9671347,23.888 C93.3591317,23.5999986 92.8844698,23.226669 92.5431347,22.768 C92.2017997,22.309331 91.9778019,21.7813363 91.8711347,21.184 C91.7644675,20.5866637 91.7111347,19.9786698 91.7111347,19.36 L91.7111347,2.152 L86.6871347,1.152 L86.6871347,17.9999996 C87,26.1433731 89,26.9999996 91,27.9999996 C93,28.9999996 94.8488655,28.9999996 98,28.9999996 C101.151134,28.9999996 102.999999,27.9999996 103.583135,27.256 C103.745713,27.0485724 104.019114,26.6612272 104.328904,26.1433737 C105.130267,24.8037948 106.175136,22.7679992 106.175135,14.36 L106.175135,6.152 Z M116.297513,17.488 L116.297513,11.056 L121.801513,11.056 C122.953519,11.056 123.81751,11.3066642 124.393513,11.808 C124.969516,12.3093358 125.257513,13.1146611 125.257513,14.224 C125.257513,15.3760058 124.969516,16.2079974 124.393513,16.72 C123.81751,17.2320026 122.953519,17.488 121.801513,17.488 L116.297513,17.488 Z M111.273513,7.152 L111.273513,33 L116.297513,33 L116.297513,23.072 L121.321513,23.072 C122.580186,23.072 123.486844,23.3493306 124.041513,23.904 C124.596182,24.4586694 124.958845,25.3333274 125.129513,26.528 C125.257514,27.4453379 125.353513,28.4053283 125.417513,29.408 C125.481513,30.4106717 125.652178,32.274663 125.929513,33 L130.953513,33 C130.718845,32.6799984 130.542847,29.290669 130.425513,28.832 C130.308179,28.373331 130.222847,27.8880026 130.169513,27.376 C130.116179,26.8639974 130.078846,26.3626691 130.057513,25.872 C130.03618,25.3813309 130.014846,24.9546685 129.993513,24.592 C129.950846,24.0159971 129.870847,23.4400029 129.753513,22.864 C129.636179,22.2879971 129.449514,21.7600024 129.193513,21.28 C128.937512,20.7999976 128.606848,20.3840018 128.201513,20.032 C127.796178,19.6799982 127.284183,19.4186675 126.665513,19.248 C127.945519,18.6719974 128.868177,17.9253382 129.433513,16.944 C129.998849,15.9626618 130.281513,14.8000067 130.281513,13.456 C130.281513,12.581329 130.126848,11.7653371 129.817513,11.008 C129.508178,10.2506629 129.060183,9.58400288 128.473513,9.008 C127.886843,8.43199712 127.18285,7.97866832 126.361513,7.648 C125.540176,7.31733168 124.617518,7.152 123.593513,7.152 L111.273513,7.152 Z M142,8.152 C139.664722,8.02289355 135.155891,7.152 135.155891,7.152 L136.155891,32 L153.499891,32 L153.499891,26.776 L141.179891,26.776 L141.179891,21.176 L152.251891,21.176 L152.251891,17.272 L141.179891,17.272 L141.179891,12.376 L153.243891,12.376 L153.243891,8.152 C153.243891,8.152 145.694056,8.35622688 142,8.152 Z" id="FUTURE" fill="#000000"></path>
            <g id="LATER" transform="translate(77.000000, 111.000000)">
                <polygon id="Path" fill="#000000" points="0 5.152 0 25.9999996 16.8064861 25.9999996 16.8064861 21.9999996 4.80648708 21.9999996 5.024 5.152"></polygon>
                <polygon id="Path" fill="#000000" points="28.9943782 4.152 20.3543782 27 25.4103782 27 27.2023782 21.912 35.7463782 21.912 37.4743782 27 42.6903782 27 34.1463782 4.152"></polygon>
                <polygon id="Path" fill="#FFFFFF" points="28.5143782 18.168 31.4903782 9.784 31.5543782 9.784 34.4343782 18.168"></polygon>
                <path d="M48.5647565,8.376 L48.5647565,27 L53.5887565,27 L53.5887565,7.376 L60.8064877,6 L60.8064877,0 C60.8064877,0 54.9839665,2.30890092 51.8064868,3 C48.6207227,3.69290092 41.7167565,4.152 41.7167565,4.152 L41.7167565,10 L48.5647565,8.376 Z" id="Path" fill="#000000"></path>
                <path d="M73.0111347,2.152 C69.7150445,1.78754952 63.8391347,0.152 63.8391347,0.152 L63.8391347,28 L82.1831347,28 L82.1831347,23.2213782 L69.8631347,23.2213782 L69.8631347,16.886084 L80.9351347,16.886084 L80.9351347,12.469479 L69.8631347,12.469479 L69.8631347,6.93062185 L81.9271347,6.93062185 L81.9271347,2.152 C81.9271347,2.152 75.7443779,2.45421619 73.0111347,2.152 Z" id="Path" fill="#000000"></path>
                <path d="M87.353513,4.152 L87.353513,28 L92.377513,28 L92.377513,18.072 L97.401513,18.072 C98.660186,18.072 99.5668436,18.3493306 100.121513,18.904 C100.676182,19.4586694 101.038845,20.3333274 101.209513,21.528 C101.337514,22.4453379 101.433513,23.4053283 101.497513,24.408 C101.561513,25.4106717 101.732178,27.274663 102.009513,28 L107.033513,28 C106.798845,27.6799984 106.622847,26.290669 106.505513,25.832 C106.388179,25.373331 106.302847,24.8880026 106.249513,24.376 C106.196179,23.8639974 106.158846,23.3626691 106.137513,22.872 C106.11618,22.3813309 106.094846,21.9546685 106.073513,21.592 C106.030846,21.0159971 105.950847,20.4400029 105.833513,19.864 C105.716179,19.2879971 105.529514,18.7600024 105.273513,18.28 C105.017512,17.7999976 104.686848,17.3840018 104.281513,17.032 C103.876178,16.6799982 103.364183,16.4186675 102.745513,16.248 C104.025519,15.6719974 104.948177,14.9253382 105.513513,13.944 C106.078849,12.9626618 106.361513,11.8000067 106.361513,10.456 C106.361513,9.58132896 106.206848,8.76533712 105.897513,8.008 C105.588178,7.25066288 105.140183,6.58400288 104.553513,6.008 C103.966843,5.43199712 103.26285,4.97866832 102.441513,4.648 C101.620176,4.31733168 100.697518,4.152 99.673513,4.152 L87.353513,4.152 Z" id="Path" fill="#000000"></path>
                <path d="M92.377513,14.488 L92.377513,8.056 L97.881513,8.056 C99.0335188,8.056 99.8975101,8.30666416 100.473513,8.808 C101.049516,9.30933584 101.337513,10.1146611 101.337513,11.224 C101.337513,12.3760058 101.049516,13.2079974 100.473513,13.72 C99.8975101,14.2320026 99.0335188,14.488 97.881513,14.488 L92.377513,14.488 Z" id="Path" fill="#FFFFFF"></path>
            </g>
        </g>
    </g>
</svg>